<svg xmlns="http://www.w3.org/2000/svg" width="104" height="104" fill="none" viewBox="0 0 104 104">
  <circle cx="52" cy="52" r="52" fill="#fff"/>
  <g clip-path="url(#a)">
    <path stroke="#000" stroke-linecap="round" stroke-linejoin="round" stroke-width="2" d="M46.583 53.458a3.917 3.917 0 1 0 7.834 0 3.917 3.917 0 0 0-7.834 0Zm-3.916 15.667v-1.958a3.917 3.917 0 0 1 3.916-3.917h7.834a3.916 3.916 0 0 1 3.916 3.917v1.958m-1.958-31.333a3.916 3.916 0 1 0 7.833 0 3.916 3.916 0 0 0-7.833 0Zm3.917 9.791h3.916a3.917 3.917 0 0 1 3.917 3.917v1.958M36.792 37.792a3.917 3.917 0 1 0 7.833 0 3.917 3.917 0 0 0-7.833 0Zm-3.917 15.666V51.5a3.917 3.917 0 0 1 3.917-3.917h3.916"/>
  </g>
  <defs>
    <clipPath id="a">
      <path fill="#fff" d="M27 28h47v47H27z"/>
    </clipPath>
  </defs>
</svg>
